<svg width="67" height="67" viewBox="0 0 67 67" fill="none" xmlns="http://www.w3.org/2000/svg">
<g clip-path="url(#clip0)">
<path d="M57.8588 1.28922H17.291C12.2456 1.29665 8.15719 5.38504 8.14975 10.4305V47.4824C3.13102 48.0304 -0.493206 52.5432 0.054797 57.5619C0.56257 62.2123 4.49933 65.7289 9.17747 65.7108H42.2267C47.2721 65.7034 51.3605 61.615 51.3679 56.5695V19.5718H57.8588C62.9074 19.5718 67 15.4791 67 10.4305C67 5.38183 62.9072 1.28922 57.8588 1.28922ZM35.7493 63.0063H9.17747C5.61883 63.0063 2.73396 60.1214 2.73396 56.5628C2.73396 53.0041 5.61883 50.1193 9.17747 50.1193H35.7493C32.199 53.6813 32.199 59.4441 35.7493 63.0063ZM48.6769 10.43V56.5695C48.6769 60.1245 45.7951 63.0063 42.2402 63.0063C38.6853 63.0063 35.8034 60.1245 35.8034 56.5695C35.8034 53.0146 38.6853 50.1328 42.2402 50.1328C42.987 50.1328 43.5924 49.5273 43.5924 48.7805C43.5924 48.0337 42.987 47.4283 42.2402 47.4283H10.9084V10.4305C10.9156 6.89957 13.7603 4.03075 17.291 3.99373H51.3274C49.6271 5.704 48.6741 8.01839 48.6769 10.43ZM56.5065 16.8672H51.3814V14.6495H56.5065V16.8672ZM59.211 16.732V16.7185V13.2973C59.211 12.5505 58.6055 11.945 57.8588 11.945H51.3814V10.4305C51.3909 6.87556 54.2805 4.00151 57.8354 4.01097C61.3904 4.02044 64.2644 6.91005 64.2549 10.465C64.2468 13.4768 62.1513 16.0802 59.211 16.732Z" fill="#007AFF"/>
<path d="M39.4546 14.7036H19.6711C18.9243 14.7036 18.3188 15.3091 18.3188 16.0559C18.3188 16.8027 18.9243 17.4081 19.6711 17.4081H39.4546C40.2014 17.4081 40.8069 16.8027 40.8069 16.0559C40.8069 15.3091 40.2014 14.7036 39.4546 14.7036Z" fill="#007AFF"/>
<path d="M39.4546 24.3587H19.6711C18.9243 24.3587 18.3188 24.9642 18.3188 25.711C18.3188 26.4578 18.9243 27.0633 19.6711 27.0633H39.4546C40.2014 27.0633 40.8069 26.4578 40.8069 25.711C40.8069 24.9642 40.2014 24.3587 39.4546 24.3587Z" fill="#007AFF"/>
<path d="M39.4546 34.0139H19.6711C18.9243 34.0139 18.3188 34.6194 18.3188 35.3661C18.3188 36.1129 18.9243 36.7184 19.6711 36.7184H39.4546C40.2014 36.7184 40.8069 36.1129 40.8069 35.3661C40.8069 34.6194 40.2014 34.0139 39.4546 34.0139Z" fill="#007AFF"/>
</g>
<defs>
<clipPath id="clip0">
<rect width="67" height="67" fill="white"/>
</clipPath>
</defs>
</svg>
