<svg width="64" height="64" viewBox="0 0 64 64" fill="none" xmlns="http://www.w3.org/2000/svg">
<g clip-path="url(#clip0)">
<path d="M18.1601 43.4754C16.8125 42.6974 15.282 42.2861 13.7339 42.2861C10.5723 42.2861 7.6271 43.9853 6.04777 46.7208C4.86351 48.7719 4.54893 51.1614 5.16186 53.449C5.77493 55.7369 7.24212 57.6488 9.29319 58.8331C10.6406 59.611 12.1711 60.0223 13.7192 60.0224C16.8811 60.0224 19.8261 58.3232 21.4055 55.5877C22.5897 53.5366 22.9042 51.1471 22.2912 48.8595C21.6783 46.5717 20.2111 44.6597 18.1601 43.4754ZM19.6334 54.5645C18.4183 56.6689 16.1522 57.9763 13.7193 57.9761C12.5299 57.976 11.3531 57.6596 10.3163 57.061C8.73865 56.15 7.61005 54.6793 7.13858 52.9196C6.66698 51.1599 6.90899 49.3218 7.82 47.7441C9.03495 45.6398 11.301 44.3325 13.7341 44.3325C14.9234 44.3325 16.1001 44.6489 17.137 45.2476C18.7147 46.1585 19.8433 47.6294 20.3149 49.3891C20.7863 51.1487 20.5443 52.9868 19.6334 54.5645Z" fill="#C63333"/>
<path d="M50.2667 42.2861C48.7186 42.2861 47.1881 42.6974 45.8406 43.4754C43.7895 44.6597 42.3223 46.5716 41.7093 48.8595C41.0963 51.1472 41.4108 53.5366 42.595 55.5877C44.1744 58.3232 47.1195 60.0224 50.2812 60.0224C51.8293 60.0224 53.3598 59.6111 54.7073 58.8331C56.7584 57.6488 58.2256 55.7369 58.8386 53.449C59.4516 51.1613 59.137 48.7719 57.9527 46.7208C56.3735 43.9855 53.4284 42.2861 50.2667 42.2861ZM56.8621 52.9196C56.3906 54.6793 55.262 56.1501 53.6843 57.061C52.6474 57.6596 51.4706 57.9761 50.2813 57.9761C47.8484 57.9761 45.5822 56.6688 44.3673 54.5645C43.4564 52.9868 43.2144 51.1487 43.6858 49.3891C44.1574 47.6294 45.2859 46.1584 46.8637 45.2476C47.9007 44.6489 49.0774 44.3325 50.2667 44.3325C52.6996 44.3325 54.9658 45.6398 56.1808 47.7441C57.0915 49.3218 57.3335 51.1598 56.8621 52.9196Z" fill="#C63333"/>
<path d="M61.415 44.558C59.6126 41.4359 56.573 39.1583 53.0762 38.3087C49.778 37.5075 46.4343 38.0465 43.6609 39.8265C41.7386 41.06 39.3152 40.7964 37.8597 39.2846L56.9241 12.0598C58.2304 10.1942 58.7319 7.93158 58.3365 5.68884C57.9411 3.44596 56.6958 1.49121 54.8303 0.184992C54.6081 0.029337 54.3329 -0.0316425 54.0658 0.0155587C53.7985 0.0626234 53.5609 0.213913 53.4054 0.436277L32.0002 31.0059L18.4801 11.6969C18.1561 11.234 17.518 11.1215 17.0552 11.4456C16.5923 11.7697 16.4798 12.4078 16.8039 12.8705L31.9897 34.5584C31.0453 34.559 30.0922 34.8375 29.2616 35.419C28.4313 36.0004 27.8439 36.8004 27.5202 37.6873L8.75281 10.8862C7.76009 9.46821 7.3788 7.74877 7.67933 6.04421C7.91984 4.68043 8.5737 3.45688 9.55182 2.51367L14.4565 9.51827C14.7806 9.98128 15.4188 10.0938 15.8814 9.76956C16.3443 9.44542 16.4568 8.80739 16.1327 8.34465L10.5953 0.436413C10.2712 -0.026595 9.63327 -0.138868 9.1704 0.185128C7.30486 1.49135 6.05962 3.44596 5.66414 5.68884C5.26866 7.93171 5.77028 10.1942 7.07663 12.0598L26.1409 39.2847C24.6855 40.7967 22.262 41.0601 20.3397 39.8266C17.5663 38.0465 14.2227 37.5076 10.9248 38.3088C7.42764 39.1583 4.38821 41.4361 2.5857 44.5582C0.854806 47.5563 0.394936 51.0489 1.29094 54.3927C2.18694 57.7366 4.33146 60.5314 7.32955 62.2623C9.31732 63.41 11.5452 64.0003 13.7995 64.0001C14.7377 64.0001 15.6807 63.898 16.6126 63.691C19.7632 62.9916 22.5214 61.1609 24.3823 58.5319L32.0005 47.6526L39.6218 58.5363C41.4796 61.161 44.2379 62.9917 47.3885 63.6912C48.3206 63.8981 49.2631 64.0004 50.2017 64.0003C52.4558 64.0003 54.6839 63.41 56.6717 62.2624C59.6698 60.5315 61.8143 57.7367 62.7103 54.3928C63.6063 51.0489 63.146 47.556 61.415 44.558ZM54.4489 2.51354C55.4268 3.45674 56.0807 4.68029 56.3214 6.04421C56.6219 7.74877 56.2407 9.46834 55.2479 10.8862L36.5794 37.5455L35.912 36.5924C35.9103 36.5899 33.2493 32.7895 33.2493 32.7895L54.4489 2.51354ZM22.7088 57.3538C19.436 61.9776 13.2642 63.3256 8.35242 60.4899C5.82771 59.0323 4.02179 56.6788 3.26725 53.8629C2.51271 51.0471 2.90001 48.1059 4.35765 45.5812C5.88187 42.9412 8.45147 41.0152 11.4075 40.2972C14.1568 39.6291 16.9364 40.0738 19.2343 41.5486C21.8728 43.242 25.1881 42.942 27.3288 40.9815L28.0656 42.0339C28.0736 42.0455 28.0807 42.0575 28.0889 42.0691C28.0923 42.0738 28.0963 42.0778 28.0997 42.0827L30.751 45.8689L22.7088 57.3538ZM60.7333 53.8631C59.9788 56.6791 58.1728 59.0326 55.6481 60.4901C50.7363 63.326 44.5644 61.9776 41.2947 57.3582L29.7542 40.8773C28.9063 39.6465 29.2089 37.954 30.4353 37.0951C31.6672 36.2325 33.3715 36.5326 34.2348 37.7644L35.7631 39.9471C37.7622 42.8023 41.7171 43.5058 44.7662 41.5484C47.0643 40.0735 49.844 39.6292 52.5931 40.297C55.5492 41.0151 58.1187 42.9411 59.6429 45.5809C61.1005 48.1059 61.4878 51.0471 60.7333 53.8631Z" fill="#C63333"/>
<path d="M32.0002 40.3535C32.5653 40.3535 33.0233 39.8954 33.0233 39.3303C33.0233 38.7652 32.5653 38.3072 32.0002 38.3072C31.4351 38.3072 30.9771 38.7652 30.9771 39.3303C30.9771 39.8954 31.4351 40.3535 32.0002 40.3535Z" fill="#C63333"/>
</g>
<defs>
<clipPath id="clip0">
<rect width="64" height="64" fill="white"/>
</clipPath>
</defs>
</svg>
