<svg width="68" height="68" viewBox="0 0 68 68" fill="none" xmlns="http://www.w3.org/2000/svg">
<g clip-path="url(#clip0)">
<path d="M58.4387 47.3991C56.3023 45.4308 53.5454 43.9994 50.5026 43.2098C52.4512 42.2319 54.0896 40.952 55.2553 39.4465C56.7334 37.5368 57.3378 35.4159 57.0016 33.3142C56.6384 31.0398 55.1614 28.8899 52.8434 27.2604C51.1807 26.0915 49.2118 25.2697 47.1096 24.8256C48.4238 23.9649 49.4541 22.9554 50.128 21.8368C51.0696 20.2732 51.2922 18.5129 50.7708 16.7453C49.9511 13.9671 47.0536 11.7498 43.1937 10.7641C43.7141 10.2961 44.1442 9.78872 44.47 9.24813C45.23 7.98641 45.409 6.56645 44.9888 5.14183C44.1732 2.37714 40.8073 0.314393 36.6133 0.00830039C35.7811 -0.0518804 34.1962 0.218414 31.873 0.638124C30.9916 0.797914 30.1589 0.948366 29.7651 0.990908L24.0708 1.60517C20.9471 1.94239 18.1922 3.47752 16.7017 5.71199C15.6615 7.27202 15.3471 9.00845 15.8172 10.6022C16.7349 13.7129 20.5336 15.7352 24.906 15.7352C25.8471 15.7352 26.8147 15.6418 27.7859 15.4452L37.0304 13.5739C37.8672 13.4048 38.6584 13.1848 39.3956 12.9218C39.6851 12.901 39.8252 12.9057 39.8755 12.9093C44.0171 13.2112 47.5278 15.1407 48.223 17.4971C48.5369 18.5606 48.4155 19.5318 47.8526 20.4667C46.706 22.3701 43.7125 24.0142 40.0399 24.7577L27.8072 27.2339C26.2819 27.5426 24.7436 27.6292 23.2728 27.5037C23.222 27.4964 23.1706 27.4923 23.1182 27.4912C21.9162 27.3755 20.7619 27.1166 19.7014 26.7156C17.5147 25.8886 15.9987 24.5258 15.5417 22.9761C15.4182 22.5585 15.3684 22.1196 15.3933 21.6713C15.4343 20.9388 14.8735 20.3121 14.1414 20.2711C13.4089 20.2285 12.7822 20.7909 12.7412 21.5235C12.6992 22.2757 12.7843 23.0176 12.9939 23.7278C13.6958 26.1071 15.7445 27.9794 18.4911 29.0886C16.874 29.9991 15.4701 31.1233 14.4169 32.3679C12.6987 34.3985 11.9723 36.6128 12.3173 38.7715C12.7542 41.5051 14.4377 43.4646 16.7941 44.7579C14.3355 45.6466 11.3985 47.0209 9.2227 49.0194C9.21284 49.0287 9.20298 49.038 9.19312 49.0479C7.00171 51.1885 5.84375 53.6268 5.84375 56.0989C5.84375 59.869 7.96253 62.9798 11.9713 65.0939C15.2314 66.8137 19.62 67.7844 24.3286 67.8274L43.1424 67.9986C43.2295 67.9997 43.3151 68.0002 43.4023 68.0002C49.6756 67.9997 55.508 65.9224 59.0441 62.4184C61.1717 60.3105 62.296 57.8447 62.296 55.287C62.296 52.4917 60.9258 49.6902 58.4387 47.3991ZM36.5038 10.97L27.2588 12.8413C26.4375 13.0074 25.6391 13.0836 24.8775 13.0836C21.5084 13.0836 18.8796 11.5947 18.365 9.84994C18.1217 9.02505 18.3157 8.07876 18.9113 7.18538C19.9702 5.59837 22.0054 4.49955 24.3556 4.24586L30.0499 3.63108C30.5376 3.57868 31.3755 3.42719 32.3451 3.25184C33.597 3.02564 35.6509 2.65418 36.3279 2.65418C36.3622 2.65418 36.3933 2.65522 36.4198 2.65729C39.3717 2.8726 41.96 4.2635 42.441 5.89253C42.6511 6.60433 42.5701 7.25335 42.1945 7.87746C41.6026 8.86059 40.3035 9.75033 38.6174 10.375C38.607 10.3786 38.5966 10.3817 38.5868 10.3859C37.9424 10.6224 37.2426 10.8206 36.5038 10.97ZM14.9404 38.3518C14.487 35.516 17.3513 32.203 21.7512 30.4743C21.8851 30.4219 22.242 30.3125 23.1442 30.1553C23.6199 30.1937 24.1029 30.2144 24.5922 30.2144C25.8134 30.2144 27.0715 30.0925 28.3343 29.8367L40.5556 27.3631C44.414 26.6352 48.4357 27.4087 51.3156 29.4331C53.0416 30.6466 54.1295 32.1739 54.3785 33.7329C54.653 35.4501 53.8644 36.9033 53.1547 37.82C51.1973 40.3486 47.3172 42.1733 43.0288 42.581L28.2621 43.986C22.3686 44.5457 15.6864 43.0225 14.9404 38.3518ZM57.1744 60.5315C54.128 63.5504 48.7599 65.3896 43.1662 65.3429L24.353 65.1706C20.0604 65.1317 16.103 64.27 13.2107 62.7442C10.0849 61.0955 8.50001 58.8594 8.50001 56.0989C8.50001 53.909 9.87483 52.099 11.0349 50.9617C14.0839 48.1716 19.1743 46.7081 20.972 46.2583C22.5361 46.595 24.2077 46.7553 25.898 46.7553C26.7685 46.7553 27.6453 46.7128 28.5132 46.6303L43.2679 45.2269C48.3812 44.8077 53.3788 46.3501 56.639 49.3529C58.5736 51.135 59.6392 53.2429 59.6392 55.2875C59.6397 57.1199 58.7873 58.9336 57.1744 60.5315Z" fill="#626262"/>
<path d="M47.5617 60.0247C47.5566 60.0252 47.5415 60.0267 47.5363 60.0273C46.8064 60.0957 46.2699 60.7432 46.3384 61.4737C46.4027 62.1616 46.9812 62.6778 47.6588 62.6778C47.7003 62.6778 47.7423 62.6757 47.7843 62.6716C47.7885 62.6716 47.8061 62.6695 47.8128 62.669C48.5412 62.5984 49.0761 61.952 49.0076 61.2231C48.9397 60.4926 48.2933 59.9562 47.5617 60.0247Z" fill="#626262"/>
<path d="M56.4208 55.7264C55.7578 55.4136 54.9661 55.6973 54.6532 56.3609C54.3617 56.9777 53.5005 57.7751 52.8006 58.2431C52.288 58.586 51.7226 58.888 51.1202 59.1406C50.4437 59.4249 50.1257 60.2031 50.4095 60.8796C50.6227 61.3881 51.1156 61.6936 51.6344 61.6936C51.8061 61.6936 51.9804 61.6604 52.148 61.5899C52.907 61.2713 53.6234 60.8885 54.2771 60.4511C54.6143 60.2254 56.3342 59.0223 57.0553 57.4939C57.3686 56.8309 57.0843 56.0392 56.4208 55.7264Z" fill="#626262"/>
<path d="M14.7156 18.806C14.9693 19.0343 15.2868 19.1463 15.6033 19.1463C15.967 19.1463 16.3291 18.998 16.5911 18.7064L16.6025 18.6939C17.1037 18.1591 17.0772 17.3196 16.5434 16.818C16.0085 16.3152 15.168 16.3417 14.6658 16.8761C14.6508 16.8921 14.6337 16.9108 14.616 16.93C14.1258 17.4758 14.1704 18.3152 14.7156 18.806Z" fill="#626262"/>
<path d="M46.9215 39.4216C47.0927 39.4216 47.267 39.3878 47.4351 39.3173C48.1941 38.9987 48.9101 38.6153 49.5637 38.1785C49.9015 37.9528 51.6208 36.7497 52.3419 35.2213C52.6553 34.5583 52.371 33.7666 51.708 33.4538C51.0444 33.141 50.2532 33.4247 49.9399 34.0878C49.6488 34.7051 48.7876 35.502 48.0872 35.9705C47.5747 36.3129 47.0092 36.6154 46.4068 36.868C45.7303 37.1523 45.4123 37.9305 45.6961 38.6065C45.9098 39.1155 46.4027 39.4216 46.9215 39.4216Z" fill="#626262"/>
</g>
<defs>
<clipPath id="clip0">
<rect width="68" height="68" fill="white"/>
</clipPath>
</defs>
</svg>
